<?xml version="1.0" encoding="UTF-8"?>
<svg width="29px" height="29px" viewBox="0 0 29 29" version="1.1" xmlns="http://www.w3.org/2000/svg" xmlns:xlink="http://www.w3.org/1999/xlink">
    <!-- Generator: sketchtool 60.1 (101010) - https://sketch.com -->
    <title>0219F736-2A44-4A5B-846C-BB4CCED2BE0D</title>
    <desc>Created with sketchtool.</desc>
    <g id="digitup-2020" stroke="none" stroke-width="1" fill="none" fill-rule="evenodd">
        <g id="Desktop_00" transform="translate(-936.000000, -1306.000000)" fill="#265BE3">
            <g id="Group-76" transform="translate(-24.000000, 943.000000)">
                <g id="Group-54" transform="translate(940.000000, 343.000000)">
                    <g id="style-3" transform="translate(20.000000, 20.000000)">
                        <g id="Group-56">
                            <g id="Group-55" transform="translate(17.000000, 0.000000)">
                                <circle id="Oval" cx="10" cy="10" r="1.66666667"></circle>
                                <circle id="Oval" cx="10" cy="1.66666667" r="1.66666667"></circle>
                                <circle id="Oval" cx="1.66666667" cy="1.66666667" r="1.66666667"></circle>
                                <circle id="Oval" cx="1.66666667" cy="10" r="1.66666667"></circle>
                            </g>
                            <g id="Group-55">
                                <circle id="Oval" cx="10" cy="10" r="1.66666667"></circle>
                                <circle id="Oval" cx="1.66666667" cy="1.66666667" r="1.66666667"></circle>
                            </g>
                        </g>
                        <g id="Group-56" transform="translate(0.000000, 17.000000)">
                            <g id="Group-55" transform="translate(17.000000, 0.000000)">
                                <path d="M10,11.6666667 C10.9204746,11.6666667 11.6666667,10.9204746 11.6666667,10 C11.6666667,9.07952542 10.9204746,8.33333333 10,8.33333333 C9.07952542,8.33333333 8.33333333,9.07952542 8.33333333,10 C8.33333333,10.9204746 9.07952542,11.6666667 10,11.6666667 Z" id="Oval"></path>
                                <circle id="Oval" cx="1.66666667" cy="1.66666667" r="1.66666667"></circle>
                            </g>
                            <g id="Group-55">
                                <circle id="Oval" cx="10" cy="1.66666667" r="1.66666667"></circle>
                                <circle id="Oval" cx="10" cy="10" r="1.66666667"></circle>
                                <circle id="Oval" cx="1.66666667" cy="1.66666667" r="1.66666667"></circle>
                                <path d="M1.66666667,11.6666667 C2.58714125,11.6666667 3.33333333,10.9204746 3.33333333,10 C3.33333333,9.07952542 2.58714125,8.33333333 1.66666667,8.33333333 C0.746192084,8.33333333 -3.8191672e-14,9.07952542 -3.8191672e-14,10 C-3.8191672e-14,10.9204746 0.746192084,11.6666667 1.66666667,11.6666667 Z" id="Oval"></path>
                            </g>
                        </g>
                    </g>
                </g>
            </g>
        </g>
    </g>
</svg>