<?xml version="1.0" encoding="UTF-8"?>
<svg width="23px" height="22px" viewBox="0 0 23 22" version="1.1" xmlns="http://www.w3.org/2000/svg" xmlns:xlink="http://www.w3.org/1999/xlink">
    <!-- Generator: sketchtool 60.1 (101010) - https://sketch.com -->
    <title>60446782-0AE1-4692-98F3-997F50D31769</title>
    <desc>Created with sketchtool.</desc>
    <g id="digitup-2020" stroke="none" stroke-width="1" fill="none" fill-rule="evenodd">
        <g id="Desktop_00" transform="translate(-998.000000, -5144.000000)" fill="#183D9A" stroke="#183D9A">
            <g id="Group-69" transform="translate(118.000000, 4665.000000)">
                <g id="Group-67" transform="translate(839.000000, 475.000000)">
                    <g id="Group-71" transform="translate(24.000000, 0.000000)">
                        <path d="M29.0059789,5.37885379 L31.2160193,12.2375581 L38.4276024,12.2308885 C38.728944,12.2308885 38.9751104,12.4673538 38.9751104,12.768089 C38.9751104,12.9457411 38.8823433,13.1070225 38.7525906,13.2088845 L32.9094741,17.4343362 L35.1498306,24.2954658 C35.2425977,24.5798304 35.0885922,24.8805656 34.8042276,24.9727265 C34.6192996,25.0345712 34.418001,24.9872782 34.2809724,24.8708645 L28.4899996,20.6454128 L22.6614349,24.894511 C22.4146622,25.0721631 22.076335,25.0175942 21.9077778,24.7787037 C21.7992463,24.631974 21.7755998,24.4470461 21.8295623,24.2954658 L21.8228928,24.2954658 L24.0705251,17.4343362 L18.2274087,13.2064592 C17.9812423,13.0312324 17.9266734,12.6922989 18.1043255,12.4534084 C18.2201328,12.292127 18.3953596,12.2139115 18.5802876,12.2308885 L25.7567041,12.2375581 L27.973414,5.3764285 C28.0661812,5.09206391 28.3669164,4.93805835 28.6506747,5.02354962 C28.8283268,5.08478805 28.95141,5.21514709 29.0059789,5.37885379 Z" id="Fill-1"></path>
                    </g>
                </g>
            </g>
        </g>
    </g>
</svg>