<?xml version="1.0" encoding="UTF-8"?>
<svg width="147px" height="147px" viewBox="0 0 147 147" version="1.1" xmlns="http://www.w3.org/2000/svg" xmlns:xlink="http://www.w3.org/1999/xlink">
    <title>Frontend</title>
    <g id="digitup-2020" stroke="none" stroke-width="1" fill="none" fill-rule="evenodd">
        <g id="Frontend" transform="translate(1.000000, 1.000000)" fill-rule="nonzero" stroke="#183D9A" stroke-width="2">
            <path d="M72.5,0 L0,0 L0,72.5 C0,112.538125 32.461875,145 72.5,145 L145,145 L145,72.5 C145,32.461875 112.538125,0 72.5,0 Z M132.916063,132.916063 L72.5,132.916063 C39.1880625,132.916063 12.0839375,105.811937 12.0839375,72.5 L12.0839375,12.0839375 L72.5,12.0839375 C105.811937,12.0839375 132.916063,39.189875 132.916063,72.5 L132.916063,132.916063 Z" id="Shape"></path>
            <path d="M72.5,24.1660625 C45.8073125,24.1660625 24.1660625,45.8073125 24.1660625,72.5 C24.1660625,99.1926875 45.8073125,120.833937 72.5,120.833937 C99.1926875,120.833937 120.833937,99.1926875 120.833937,72.5 C120.833937,45.8073125 99.1926875,24.1660625 72.5,24.1660625 Z M72.5,108.75 C52.4755,108.75 36.25,92.5190625 36.25,72.5 C36.25,52.4809375 52.4755,36.25 72.5,36.25 C92.5190625,36.25 108.75,52.4809375 108.75,72.5 C108.75,92.5190625 92.5190625,108.75 72.5,108.75 Z" id="Shape"></path>
            <path d="M72.5,48.3339375 C59.1545625,48.3339375 48.3339375,59.1545625 48.3339375,72.5 C48.3339375,85.8454375 59.1545625,96.6660625 72.5,96.6660625 C85.8454375,96.6660625 96.6660625,85.8454375 96.6660625,72.5 C96.6660625,59.1545625 85.8454375,48.3339375 72.5,48.3339375 Z M72.5,84.5839375 C65.826375,84.5839375 60.4160625,79.173625 60.4160625,72.5 C60.4160625,65.826375 65.826375,60.4160625 72.5,60.4160625 C79.173625,60.4160625 84.5839375,65.826375 84.5839375,72.5 C84.5839375,79.173625 79.173625,84.5839375 72.5,84.5839375 Z" id="Shape"></path>
        </g>
    </g>
</svg>