<?xml version="1.0" encoding="UTF-8"?>
<svg width="175px" height="42px" viewBox="0 0 175 42" version="1.1" xmlns="http://www.w3.org/2000/svg" xmlns:xlink="http://www.w3.org/1999/xlink">
    <!-- Generator: sketchtool 60.1 (101010) - https://sketch.com -->
    <title>9968C8C5-D4D7-48E4-9D10-1AF6AB1F6D5D</title>
    <desc>Created with sketchtool.</desc>
    <g id="digitup-2020" stroke="none" stroke-width="1" fill="none" fill-rule="evenodd">
        <g id="Desktop_00" transform="translate(-3.000000, -5621.000000)" fill="#FFFFFF">
            <g id="Group-70" transform="translate(-1582.000000, 5363.000000)">
                <g id="Group-72" transform="translate(1585.000000, 224.000000)">
                    <g id="Group-3" transform="translate(0.000000, 34.000000)">
                        <path d="M165.738454,8.36166251 C166.664066,9.25398787 167.87536,9.74518835 169.148819,9.74518835 L169.208241,9.74518835 C171.820522,9.71457152 173.979368,7.61931526 174.01685,5.07412469 C174.035134,3.78866146 173.538275,2.57774355 172.616777,1.6654507 L172.616777,1.66500698 C171.705792,0.762032287 170.474843,0.25973875 169.151561,0.250864306 C167.863019,0.250864306 166.648982,0.734077788 165.73434,1.61176031 C164.803701,2.50541684 164.287644,3.70302307 164.282102,4.98360536 C164.275759,6.23268337 164.806901,7.46356877 165.738454,8.36166251" id="Fill-1036"></path>
                        <path d="M97.3521159,0.250864306 C94.6680102,0.250864306 92.4847387,2.29165311 92.4847387,4.80003837 L92.4847387,36.0525674 C92.4847387,38.5609527 94.6680102,40.6017415 97.3521159,40.6017415 C100.036222,40.6017415 102.219974,38.5609527 102.219974,36.0525674 L102.219974,4.80003837 C102.219974,2.29165311 100.036222,0.250864306 97.3521159,0.250864306" id="Fill-1038"></path>
                        <path d="M169.758172,11.5253741 C167.073717,11.5253741 164.890554,13.6186198 164.890554,16.1910199 L164.890554,36.5294909 C164.890554,39.1018911 167.073717,41.1951368 169.758172,41.1951368 C172.442145,41.1951368 174.625789,39.1018911 174.625789,36.5294909 L174.625789,16.1910199 C174.625789,13.6186198 172.442145,11.5253741 169.758172,11.5253741" id="Fill-1040"></path>
                        <path d="M85.1833119,4.80003837 C85.1833119,2.29165311 82.9994514,0.250864306 80.315213,0.250864306 C77.6314557,0.250864306 75.4480763,2.29165311 75.4480763,4.80003837 L75.4480763,36.053017 C75.4480763,38.5609527 77.6314557,40.6017415 80.315213,40.6017415 C82.9994514,40.6017415 85.1833119,38.5609527 85.1833119,36.053017 L85.1833119,4.80003837 Z" id="Fill-1042"></path>
                        <path d="M66.2590791,12.1187694 C63.876083,12.1187694 61.9372427,14.0456388 61.9372427,16.4139216 C61.9372427,25.014217 54.8970088,32.011437 46.2428263,32.011437 C37.5886438,32.011437 30.5474959,25.014217 30.5474959,16.4139216 C30.5474959,14.0456388 28.6086556,12.1187694 26.2256596,12.1187694 C23.8426636,12.1187694 21.9042802,14.0456388 21.9042802,16.4139216 C21.9042802,29.7512368 32.8226517,40.6017415 46.2428263,40.6017415 C59.662087,40.6017415 70.5804585,29.7512368 70.5804585,16.4139216 C70.5804585,14.0456388 68.6416182,12.1187694 66.2590791,12.1187694" id="Fill-1044"></path>
                        <path d="M4.67029722,0.250864306 C2.09487089,0.250864306 0,2.29165311 0,4.80003837 L0,36.0534667 C0,38.5614023 2.09487089,40.6017415 4.67029722,40.6017415 L17.233983,40.6017415 C19.8089477,40.6017415 21.9042802,38.5614023 21.9042802,36.0534667 C21.9042802,33.5446318 19.8089477,31.5042926 17.233983,31.5042926 L9.34059443,31.5042926 L9.34059443,4.80003837 C9.34059443,2.29165311 7.24572354,0.250864306 4.67029722,0.250864306" id="Fill-1046"></path>
                        <path d="M116.459405,32.6280636 C116.459405,31.1804524 117.595689,30.3505939 119.57638,30.3505939 C120.431647,30.3505939 121.478332,30.4475964 122.402835,30.5329957 L123.241812,30.6086483 L123.241812,34.732414 L123.04406,34.780219 C122.038102,35.0229573 120.98825,35.113462 119.171372,35.113462 C117.298381,35.113462 116.459405,33.9099815 116.459405,32.7171759 L116.459405,32.6280636 Z M118.073552,41.788532 C122.611448,41.788532 125.992244,41.3559659 128.121362,40.5029011 C131.10077,39.2859609 131.425681,38.5526407 131.425681,36.1842022 L131.425681,23.4420682 C131.425681,16.3516048 127.212244,12.1187694 120.154251,12.1187694 C116.821423,12.1187694 113.928899,12.8506971 112.888097,13.3120391 C111.117829,14.1084805 110.327272,15.3133534 110.327272,17.2190575 C110.327272,18.9660304 111.759958,21.0754862 113.537919,21.0754862 C114.232994,21.0754862 114.706785,20.9603828 115.305925,20.814647 C115.544857,20.7566311 115.799174,20.6953664 116.088336,20.6359582 C117.370332,20.3913634 118.297098,20.3050359 119.63385,20.3050359 C121.993755,20.3050359 123.241812,21.5642116 123.241812,23.9456456 L123.241812,24.7982463 L122.772546,24.7044928 C121.634904,24.4752142 120.457441,24.2385096 118.304791,24.2385096 C113.742459,24.2385096 108.304497,25.8016882 108.304497,33.2504575 L108.304497,33.5173303 C108.304497,38.4649208 112.230129,41.788532 118.073552,41.788532 L118.073552,41.788532 Z" id="Fill-1048"></path>
                        <path d="M143.231622,32.6280636 C143.231622,31.1804524 144.367498,30.3505939 146.348266,30.3505939 C147.203115,30.3505939 148.250745,30.4475964 149.175285,30.5329957 L150.013842,30.6086483 L150.013842,34.732414 L149.816535,34.780219 C148.810085,35.0229573 147.759739,35.113462 145.943695,35.113462 C144.070631,35.113462 143.231622,33.9099815 143.231622,32.7171759 L143.231622,32.6280636 Z M144.84538,41.788532 C149.383906,41.788532 152.764381,41.3559659 154.894036,40.5029011 C157.873108,39.286425 158.197579,38.5526407 158.197579,36.1842022 L158.197579,23.4420682 C158.197579,16.3516048 153.98443,12.1187694 146.926613,12.1187694 C143.593654,12.1187694 140.700564,12.8506971 139.660174,13.3120391 C137.889385,14.1084805 137.099249,15.3133534 137.099249,17.2190575 C137.099249,18.9660304 138.531087,21.0754862 140.309117,21.0754862 C141.005124,21.0754862 141.478934,20.9603828 142.078549,20.814647 C142.317038,20.7566311 142.570913,20.6953664 142.860086,20.6359582 C144.142585,20.3913634 145.069388,20.3050359 146.406191,20.3050359 C148.766189,20.3050359 150.013842,21.5642116 150.013842,23.9456456 L150.013842,24.7982463 L149.54501,24.7044928 C148.407324,24.4752142 147.229815,24.2385096 145.077081,24.2385096 C140.51457,24.2385096 135.076395,25.8016882 135.076395,33.2504575 L135.076395,33.5173303 C135.076395,38.4649208 139.002181,41.788532 144.84538,41.788532 L144.84538,41.788532 Z" id="Fill-1050"></path>
                    </g>
                </g>
            </g>
        </g>
    </g>
</svg>