<?xml version="1.0" encoding="UTF-8"?>
<svg width="186px" height="41px" viewBox="0 0 186 41" version="1.1" xmlns="http://www.w3.org/2000/svg" xmlns:xlink="http://www.w3.org/1999/xlink">
    <!-- Generator: sketchtool 60.1 (101010) - https://sketch.com -->
    <title>4CD627E9-1281-4B32-90E6-3A1A0B9CC747</title>
    <desc>Created with sketchtool.</desc>
    <defs>
        <path d="M18.7818146,0 C26.5437039,0 33.2058985,4.86213475 36.0680398,11.7978931 C36.2947169,12.3382789 36.6876065,13.2952032 37.0396943,14.1780384 C37.8281678,16.1550613 40.1693664,21.8846491 44.0632899,31.3668191 L33.5594888,31.3669689 C30.1208883,35.8868241 24.779677,38.7900709 18.7818146,38.7900709 C8.40890466,38.7900709 0,30.1066179 0,19.3950355 C0,8.68345165 8.40890466,0 18.7818146,0 Z M19.2092628,7.68177163 C15.1290755,7.68177163 9.77949657,9.55439574 9.77949657,14.8913745 C9.77949657,19.938095 14.4413813,21.6019344 18.5504669,22.011839 L18.6748101,22.0238787 L19.0279211,22.0541617 C22.2014002,22.2414241 23.4707918,22.8968426 23.4707918,24.488573 C23.4707918,26.1739361 21.5213689,27.2975106 19.4359399,27.250695 C16.9674266,27.2043475 13.3880822,25.8732488 11.7771304,24.07505 L11.7289194,24.020417 L9.00879452,28.0933758 C12.1056567,31.4245985 15.4473587,32.1431433 18.8016266,32.2080443 L18.9032747,32.2098129 L19.345269,32.2131489 C25.7375625,32.2131489 28.9563769,28.7019786 28.9563769,24.6290199 C28.9563769,18.779641 24.0898835,17.614924 19.9818335,17.2760427 L19.8575851,17.2660224 L19.1792767,17.2168793 C16.469553,17.0023569 15.2197463,16.1647589 15.2197463,14.7041121 C15.2197463,13.2528284 16.6704796,12.4101475 19.2999336,12.4101475 C21.4026617,12.4101475 23.1963383,12.9116564 24.7681018,14.4095843 L24.8308542,14.470034 L27.9136624,10.7247858 C25.3295438,8.38400567 22.7000897,7.68177163 19.2092628,7.68177163 Z" id="path-1"></path>
        <path d="M38.0158543,9.12890169 L38.211278,9.12904255 C41.2034154,9.12904255 44.0595465,10.5803262 45.3289381,12.8742908 L45.3289381,12.8742908 L45.5102797,9.69082979 L50.8145232,9.69082979 L50.8145232,32.770922 L45.6009506,32.770922 L45.3289381,29.4001986 C44.0595465,32.1155035 40.5687196,33.4263404 38.0752718,33.473156 C31.4563012,33.5199716 26.5600765,29.3065674 26.5600765,21.2074681 C26.5600765,13.2488156 31.6829783,9.08222695 38.211278,9.12904255 L38.0158543,9.12890169 Z M113.680661,9.12890169 L113.876085,9.12904255 C116.868222,9.12904255 119.724353,10.5803262 120.993745,12.8742908 L120.993745,12.8742908 L121.175087,9.69082979 L126.47933,9.69082979 L126.47933,32.770922 L121.265757,32.770922 L120.993745,29.4001986 C119.724353,32.1155035 116.233526,33.4263404 113.740079,33.473156 C107.121108,33.5199716 102.224883,29.3065674 102.224883,21.2074681 C102.224883,13.2488156 107.347785,9.08222695 113.876085,9.12904255 L113.680661,9.12890169 Z M66.0472225,9.03541135 C69.2207016,9.03541135 71.668814,9.9717234 74.1169263,12.4529504 L74.1169263,12.4529504 L70.6260994,16.2450142 C69.3113724,15.0278085 67.6792975,14.4192057 66.1378934,14.4192057 C62.4203894,14.4192057 59.7002645,17.2281418 59.7002645,21.2542837 C59.7002645,25.6549504 62.601731,27.9957305 66.0472225,27.9957305 C67.8153037,27.9957305 69.5833849,27.4807589 70.9434473,26.0762908 L70.9434473,26.0762908 L74.6609513,29.821539 C72.0768327,32.4432128 69.3567078,33.473156 66.0472225,33.473156 C59.5642583,33.473156 54.1693439,29.4470142 54.1693439,21.2542837 C54.1693439,13.0615532 59.5642583,9.03541135 66.0472225,9.03541135 Z M138.946569,3.18346099 L138.946569,9.73764539 L145.112186,9.73764539 L145.112186,14.6532837 L138.901234,14.6532837 L138.901234,24.6250071 C138.901234,26.8253404 140.079955,27.9020993 141.8027,27.9020993 C142.664073,27.9020993 143.661452,27.6212057 144.47749,27.1998652 L146.018894,32.0686879 C144.432154,32.7241064 143.117427,33.005 141.440017,33.0518156 C136.589128,33.239078 133.415649,30.3833262 133.415649,24.6250071 L133.415649,14.6532837 L129.24479,14.6532837 L129.24479,9.73764539 L133.415649,9.73764539 L133.415649,3.79206383 L138.946569,3.18346099 Z M6.06846906,9.64401418 L9.15127726,17.2749574 L12.5967688,27.0126028 L15.9969249,17.3685887 L19.079733,9.64401418 L25.1093432,9.64401418 L15.5889061,32.8645532 L9.6046314,32.8645532 L0.0388589268,9.64401418 L6.06846906,9.64401418 Z M82.6399843,0 L82.6399843,12.8274752 C84.6347425,10.1589858 87.0828549,9.36312057 89.6216381,9.36312057 C95.9685962,9.36312057 98.7793919,13.8106028 98.7793919,20.5988652 L98.7793919,20.5988652 L98.7793919,32.770922 L93.2484713,32.770922 L93.2484713,20.6456809 C93.2484713,16.4322766 91.1177068,14.6532837 88.1709049,14.6532837 C84.906755,14.6532837 82.6399843,17.5090355 82.6399843,20.9733901 L82.6399843,20.9733901 L82.6399843,32.770922 L77.1090637,32.770922 L77.1090637,0 L82.6399843,0 Z M38.7099676,14.2319433 C35.037799,14.2319433 32.090997,16.8068014 32.090997,21.2074681 C32.090997,25.6081348 35.037799,28.2298085 38.7099676,28.2298085 C47.4143672,28.2298085 47.4143672,14.2319433 38.7099676,14.2319433 Z M114.374774,14.2319433 C110.702606,14.2319433 107.755804,16.8068014 107.755804,21.2074681 C107.755804,25.6081348 110.702606,28.2298085 114.374774,28.2298085 C123.079174,28.2298085 123.079174,14.2319433 114.374774,14.2319433 Z" id="path-3"></path>
    </defs>
    <g id="digitup-2020" stroke="none" stroke-width="1" fill="none" fill-rule="evenodd">
        <g id="Desktop_00" transform="translate(-1250.000000, -5625.000000)">
            <g id="Group-70" transform="translate(-1582.000000, 5363.000000)">
                <g id="Group-72" transform="translate(1585.000000, 224.000000)">
                    <g id="Svachat_Blanco" transform="translate(1247.000000, 38.000000)">
                        <g id="Group-3" transform="translate(0.000000, 1.337589)">
                            <mask id="mask-2" fill="white">
                                <use xlink:href="#path-1"></use>
                            </mask>
                            <g id="Clip-2"></g>
                            <polygon id="Fill-1" fill="#FFFFFF" mask="url(#mask-2)" points="-3.2382439 -3.34397163 47.3015338 -3.34397163 47.3015338 42.1340426 -3.2382439 42.1340426"></polygon>
                        </g>
                        <g id="Group-6" transform="translate(40.024695, 0.000000)">
                            <mask id="mask-4" fill="white">
                                <use xlink:href="#path-3"></use>
                            </mask>
                            <g id="Clip-5"></g>
                            <polygon id="Fill-4" fill="#FFFFFF" mask="url(#mask-4)" points="-3.19938497 -3.34397163 149.257138 -3.34397163 149.257138 36.8175142 -3.19938497 36.8175142"></polygon>
                        </g>
                    </g>
                </g>
            </g>
        </g>
    </g>
</svg>