<?xml version="1.0" encoding="UTF-8"?>
<svg width="159px" height="147px" viewBox="0 0 159 147" version="1.1" xmlns="http://www.w3.org/2000/svg" xmlns:xlink="http://www.w3.org/1999/xlink">
    <title>Backend</title>
    <g id="digitup-2020" stroke="none" stroke-width="1" fill="none" fill-rule="evenodd">
        <g id="Backend" transform="translate(1.000000, 1.000000)" fill-rule="nonzero" stroke="#183D9A" stroke-width="2">
            <path d="M97.972973,0.6525 L6.53087838,0.6525 C2.94114865,0.6525 0,3.59364865 0,7.18337838 L0,33.3108108 C0,36.9005405 2.94114865,39.8416892 6.53087838,39.8416892 L97.972973,39.8416892 C101.564662,39.8416892 104.503851,36.9005405 104.503851,33.3108108 L104.503851,7.18337838 C104.503851,3.59364865 101.564662,0.6525 97.972973,0.6525 Z M91.4420946,26.777973 L13.0637162,26.777973 L13.0637162,13.7162162 L91.4420946,13.7162162 L91.4420946,26.777973 Z" id="Shape"></path>
            <path d="M137.162162,0.6525 C126.343986,0.6525 117.567568,9.42891892 117.567568,20.2470946 C117.567568,31.0652703 126.343986,39.8416892 137.162162,39.8416892 C147.980338,39.8416892 156.756757,31.0652703 156.756757,20.2470946 C156.756757,9.42891892 147.980338,0.6525 137.162162,0.6525 Z M137.162162,26.777973 C133.558716,26.777973 130.631284,23.8505405 130.631284,20.2470946 C130.631284,16.649527 133.558716,13.7162162 137.162162,13.7162162 C140.765608,13.7162162 143.693041,16.649527 143.693041,20.2470946 C143.693041,23.8505405 140.765608,26.777973 137.162162,26.777973 Z" id="Shape"></path>
            <path d="M58.7837838,92.0945946 L150.225878,92.0945946 C153.815608,92.0945946 156.756757,89.1534459 156.756757,85.5637162 L156.756757,59.4362838 C156.756757,55.8445946 153.815608,52.9054054 150.225878,52.9054054 L58.7837838,52.9054054 C55.1920946,52.9054054 52.2529054,55.8445946 52.2529054,59.4362838 L52.2529054,85.5637162 C52.2529054,89.1534459 55.1920946,92.0945946 58.7837838,92.0945946 Z M65.3146622,65.9671622 L143.693041,65.9671622 L143.693041,79.0308784 L65.3146622,79.0308784 L65.3146622,65.9671622 Z" id="Shape"></path>
            <path d="M19.5945946,92.0945946 C30.4127703,92.0945946 39.1891892,83.3181757 39.1891892,72.5 C39.1891892,61.6818243 30.4127703,52.9054054 19.5945946,52.9054054 C8.77641892,52.9054054 0,61.6818243 0,72.5 C0,83.3181757 8.77641892,92.0945946 19.5945946,92.0945946 Z M19.5945946,65.9671622 C23.1980405,65.9671622 26.125473,68.9024324 26.125473,72.5 C26.125473,76.1034459 23.1980405,79.0308784 19.5945946,79.0308784 C15.9911486,79.0308784 13.0637162,76.1034459 13.0637162,72.5 C13.0637162,68.9024324 15.9911486,65.9671622 19.5945946,65.9671622 Z" id="Shape"></path>
            <path d="M97.972973,105.158311 L6.53087838,105.158311 C2.94114865,105.158311 0,108.0975 0,111.689189 L0,137.814662 C0,141.406351 2.94114865,144.3475 6.53087838,144.3475 L97.972973,144.3475 C101.564662,144.3475 104.503851,141.406351 104.503851,137.814662 L104.503851,111.689189 C104.503851,108.0975 101.564662,105.158311 97.972973,105.158311 Z M91.4420946,131.283784 L13.0637162,131.283784 L13.0637162,118.220068 L91.4420946,118.220068 L91.4420946,131.283784 Z" id="Shape"></path>
            <path d="M137.162162,105.158311 C126.343986,105.158311 117.567568,113.93473 117.567568,124.752905 C117.567568,135.571081 126.343986,144.3475 137.162162,144.3475 C147.980338,144.3475 156.756757,135.571081 156.756757,124.752905 C156.756757,113.93473 147.980338,105.158311 137.162162,105.158311 Z M137.162162,131.283784 C133.558716,131.283784 130.631284,128.350473 130.631284,124.752905 C130.631284,121.155338 133.558716,118.220068 137.162162,118.220068 C140.765608,118.220068 143.693041,121.155338 143.693041,124.752905 C143.693041,128.350473 140.765608,131.283784 137.162162,131.283784 Z" id="Shape"></path>
        </g>
    </g>
</svg>