<?xml version="1.0" encoding="UTF-8"?>
<svg width="147px" height="147px" viewBox="0 0 147 147" version="1.1" xmlns="http://www.w3.org/2000/svg" xmlns:xlink="http://www.w3.org/1999/xlink">
    <title>Desing</title>
    <g id="digitup-2020" stroke="none" stroke-width="1" fill="none" fill-rule="evenodd">
        <g id="Desing" transform="translate(1.000000, 1.000000)" fill-rule="nonzero" stroke="#183D9A" stroke-width="2">
            <path d="M30.2089375,0 C13.5230625,0 0,13.5230625 0,30.2089375 C0,46.8948125 13.5230625,60.417875 30.2089375,60.417875 C46.8875625,60.417875 60.417875,46.8875625 60.417875,30.2089375 C60.4160625,13.5285 46.88575,0 30.2089375,0 Z M30.2089375,48.3339375 C20.194875,48.3339375 12.0839375,40.2211875 12.0839375,30.2089375 C12.0839375,20.194875 20.194875,12.0839375 30.2089375,12.0839375 C40.2211875,12.0839375 48.3339375,20.194875 48.3339375,30.2089375 C48.3339375,40.2211875 40.2211875,48.3339375 30.2089375,48.3339375 Z" id="Shape"></path>
            <polygon id="Rectangle" transform="translate(65.964963, 65.966397) rotate(-45.000000) translate(-65.964963, -65.966397) " points="17.6333019 59.9244863 114.296625 59.9244863 114.296625 72.0083079 17.6333019 72.0083079"></polygon>
            <polygon id="Rectangle" transform="translate(83.053814, 83.048193) rotate(-45.000000) translate(-83.053814, -83.048193) " points="22.6383305 77.0053763 143.469297 77.0053763 143.469297 89.0910104 22.6383305 89.0910104"></polygon>
            <path d="M48.3339375,145 L145,145 L145,48.3339375 L48.3339375,145 Z M132.917875,132.917875 L77.5025,132.917875 L132.917875,77.5115625 L132.917875,132.917875 Z" id="Shape"></path>
        </g>
    </g>
</svg>