<?xml version="1.0" encoding="UTF-8"?>
<svg width="135px" height="45px" viewBox="0 0 135 45" version="1.1" xmlns="http://www.w3.org/2000/svg" xmlns:xlink="http://www.w3.org/1999/xlink">
    <!-- Generator: sketchtool 60.1 (101010) - https://sketch.com -->
    <title>AEC01F7F-A9B2-4D8A-9FA2-8981AB5B8D67</title>
    <desc>Created with sketchtool.</desc>
    <g id="digitup-2020" stroke="none" stroke-width="1" fill="none" fill-rule="evenodd">
        <g id="Artboard" transform="translate(-160.000000, -223.000000)" fill="#183D9A">
            <g id="digitup_blue" transform="translate(160.000000, 223.000000)">
                <path d="M20.5115342,0 C21.8850025,0 22.9902031,1.10559894 22.9902031,2.46945011 L22.9902031,18.7958814 C22.9902031,18.8426086 22.9888812,18.8912064 22.9862728,18.9414873 L22.9715646,18.703558 C23.414192,25.035825 18.6369313,30.5282877 12.3014379,30.9714766 C5.96594456,31.4146656 0.471062693,26.6407736 0.0284353687,20.3085065 C-0.414191956,13.9762395 4.3630687,8.48377685 10.6985621,8.04058793 C12.0561074,7.9456231 13.2336467,8.96865607 13.32851,10.3257799 C13.4233734,11.6829037 12.3996185,12.8599245 11.0420732,12.9548894 C7.42167052,13.2081486 4.69191959,16.3465696 4.94482021,19.964589 C5.19772083,23.5826084 8.33752416,26.3104345 11.9579268,26.0571752 C15.2691811,25.8255419 17.9031226,23.3761352 18.1355196,20.1849963 L18.0617818,2.47093684 C18.0562061,1.11187527 19.152988,0.00559916375 20.5115342,0 Z" id="Combined-Shape"></path>
                <path d="M47.3014379,8.02883674 C53.517174,8.46842548 58.2330299,13.8216018 57.9910945,20.0694465 L57.9908356,33.2090619 C57.9916283,33.2653948 57.9920283,33.3224657 57.9920283,33.3802808 C57.9920283,39.7977525 52.8434153,45 46.4924513,45 C45.131591,45 44.0282562,43.8851715 44.0282562,42.5097868 C44.0282562,41.134402 45.131591,40.0195735 46.4924513,40.0195735 C50.1216946,40.0195735 53.0636382,37.0469829 53.0636382,33.3802808 L53.064,33.312 L53.0617818,33.2172975 L53.1334012,18.9053074 C52.8875833,15.6930432 50.2594172,13.2306189 46.9579268,12.9971312 C43.3375242,12.7410894 40.1977208,15.4988858 39.9448202,19.1566561 C39.6919196,22.8144263 42.4216705,25.9873289 46.0420732,26.2433707 C47.3996185,26.3393789 48.4233734,27.5293316 48.32851,28.901366 C48.2336467,30.2734004 47.0561074,31.3076733 45.6985621,31.2116651 C39.3630687,30.7636069 34.585808,25.210799 35.0284354,18.8089599 C35.4710627,12.4071209 40.9659446,7.58077854 47.3014379,8.02883674 Z" id="Combined-Shape"></path>
                <path d="M72.4695974,0 C73.8447245,0 74.9512599,1.11483768 74.9512599,2.49008562 L74.9499947,7.76570301 C75.9867932,7.76145678 77.1803076,7.75656771 78.5305379,7.75103581 C79.9004551,7.74545132 81.0155677,8.84395965 81.0212116,10.2046442 C81.0212116,11.5802744 79.9067816,12.6872145 78.5320365,12.6872145 L74.951,12.687 L74.951,17.256 L74.9616241,19.2421205 C74.9621782,19.2547721 74.9626741,19.2674367 74.9631114,19.2801138 L74.9655293,19.4277813 C74.9590377,23.0832026 77.9006832,26.0413781 81.5360511,26.0348774 C82.899208,26.0324398 84.002431,27.1418621 83.999996,28.5130155 C83.997561,29.8841688 82.8903906,30.9975437 81.5272337,30.9999813 C75.165552,31.0113572 70.0174605,25.834337 70.0288222,19.436609 C70.0288832,19.402231 70.0290864,19.3681165 70.02943,19.3342645 C70.0272384,19.3110304 70.0266949,19.2859781 70.0266949,19.2608202 L70.0260156,10.3663469 C69.9923272,10.0847594 69.9904534,9.80081637 70.025695,9.52939871 L70.0266949,5.67243024 C70.0266949,5.63084853 70.0282079,5.58748695 70.0311905,5.54253632 L70.0168861,2.49158477 C70.0113037,1.12116645 71.1094103,0.00564595214 72.4695974,0 Z" id="Combined-Shape"></path>
                <path d="M132.511534,8 C133.885003,8 134.990203,9.10559894 134.990203,10.4694501 L134.990203,26.7958814 C134.990203,26.8426086 134.988881,26.8912064 134.986273,26.9414873 L134.971565,26.703558 C135.414192,33.035825 130.636931,38.5282877 124.301438,38.9714766 C117.965945,39.4146656 112.471063,34.6407736 112.028435,28.3085065 C111.585808,21.9762395 116.363069,16.4837769 122.698562,16.0405879 C124.056107,15.9456231 125.233647,16.9686561 125.32851,18.3257799 C125.423373,19.6829037 124.399619,20.8599245 123.042073,20.9548894 C119.421671,21.2081486 116.69192,24.3465696 116.94482,27.964589 C117.197721,31.5826084 120.337524,34.3104345 123.957927,34.0571752 C127.269181,33.8255419 129.903123,31.3761352 130.13552,28.1849963 L130.061782,10.4709368 C130.056206,9.11187527 131.152988,8.00559916 132.511534,8 Z" id="Combined-Shape" transform="translate(123.500000, 23.500000) scale(-1, -1) translate(-123.500000, -23.500000) "></path>
                <path d="M105.510122,8 C106.883473,8 107.988579,9.10996227 107.988579,10.479196 L107.988579,18.8423156 L107.986,18.918 L107.988058,18.9562928 C108.269469,25.1883597 103.544211,30.5378445 97.3059307,30.9729844 C97.0206416,30.9928842 96.7520407,31.0014113 96.4995403,30.9995272 C96.2495848,31.0015827 95.9807377,30.9929782 95.6940693,30.9729822 C89.358316,30.5310433 84.5832359,25.0199864 85.0288132,18.6635315 L85.013,18.918 L85.0114206,18.8423156 L85.0114206,10.479196 C85.0114206,9.10996227 86.1165267,8 87.4898776,8 C88.8483077,8.00562126 89.944996,9.11626337 89.9394208,10.4806886 L89.9394208,10.4806886 L89.8664383,20.1740795 C90.10959,23.3646176 92.7373532,25.8095482 96.0398698,26.0399092 C96.1252379,26.0458639 96.2099104,26.0545261 96.2937895,26.0657589 C96.5447314,26.0536702 96.8204632,26.0496536 96.9601302,26.0399114 C100.262647,25.8095504 102.89041,23.3646198 103.133562,20.1740816 L103.060579,10.4806886 C103.055004,9.11626337 104.151692,8.00562126 105.510122,8 Z" id="Combined-Shape"></path>
                <path d="M64.4418037,8.02220888 C65.8108155,8.02220888 66.91243,9.12611683 66.91243,10.487882 L66.91243,29.4866178 C66.91243,30.8230773 65.8312868,31.9064918 64.4976291,31.9064918 C63.1631924,31.9064918 62.0798795,30.8253663 62.0743819,29.4881375 L62,11.4009811 L62.0029789,11.271 L62,10.4893665 C61.9944424,9.13238356 63.0876656,8.02779948 64.4418037,8.02220888 Z M64.5471698,0 C65.8534498,0 66.9123989,1.06117383 66.9123989,2.37019808 C66.9123989,3.67922233 65.8534498,4.74039616 64.5471698,4.74039616 C63.2408898,4.74039616 62.1819407,3.67922233 62.1819407,2.37019808 C62.1819407,1.06117383 63.2408898,0 64.5471698,0 Z" id="Combined-Shape"></path>
                <path d="M29.4418037,8.20453181 C30.8108155,8.20453181 31.91243,9.30843976 31.91243,10.6702049 L31.91243,29.4866178 C31.91243,30.8230773 30.8312868,31.9064918 29.4976291,31.9064918 C28.1631924,31.9064918 27.0798795,30.8253663 27.0743819,29.4881375 L27,11.4009811 L27.0029789,11.297 L27,10.6716894 C26.9944424,9.31470649 28.0876656,8.21012241 29.4418037,8.20453181 Z M29.5471698,0 C30.8534498,0 31.9123989,1.06117383 31.9123989,2.37019808 C31.9123989,3.67922233 30.8534498,4.74039616 29.5471698,4.74039616 C28.2408898,4.74039616 27.1819407,3.67922233 27.1819407,2.37019808 C27.1819407,1.06117383 28.2408898,0 29.5471698,0 Z" id="Combined-Shape"></path>
            </g>
        </g>
    </g>
</svg>