<?xml version="1.0" encoding="UTF-8"?>
<svg width="137px" height="47px" viewBox="0 0 137 47" version="1.1" xmlns="http://www.w3.org/2000/svg" xmlns:xlink="http://www.w3.org/1999/xlink">
    <!-- Generator: sketchtool 60.1 (101010) - https://sketch.com -->
    <title>E52E0918-E504-4679-9DDB-B96427830391</title>
    <desc>Created with sketchtool.</desc>
    <g id="digitup-2020" stroke="none" stroke-width="1" fill="none" fill-rule="evenodd">
        <g id="Artboard" transform="translate(-159.000000, -39.000000)" fill="#FFFFFF" fill-rule="nonzero">
            <g id="digitup_line" transform="translate(159.000000, 39.000000)">
                <path d="M21.5115342,0 C19.5965101,0.00788415975 18.053949,1.56378884 18.0617902,3.47503943 L18.1355282,21.189159 C17.9442494,23.7750414 15.736125,25.8603872 12.888144,26.059613 C9.8186187,26.2743366 7.15676867,23.9618355 6.9423861,20.8948589 C6.73310507,17.9008653 8.93351883,15.2941066 11.8939097,14.9719214 L12.111856,14.9524516 C14.0202672,14.8189518 15.4594524,13.1641454 15.3260759,11.2560497 C15.1926966,9.34791285 13.5372316,7.90952311 11.6287793,8.04302572 C4.74243696,8.52474837 -0.45027213,14.4949808 0.030869478,21.3782367 C0.512013962,28.2615337 6.48483732,33.4507644 13.3712207,32.9690388 L13.6776629,32.9438831 C20.1907827,32.3298878 25.1296168,26.7867617 24.9974394,20.261881 L24.986,19.94 L24.9902031,19.7958814 L24.9902031,3.46945011 C24.9902031,1.55120261 23.4351733,0 21.5115342,0 Z M13.3014379,31.9714766 C6.96594456,32.4146656 1.47106269,27.6407736 1.02843537,21.3085065 C0.585808044,14.9762395 5.3630687,9.48377685 11.6985621,9.04058793 C13.0561074,8.9456231 14.2336467,9.96865607 14.32851,11.3257799 C14.4195789,12.6286187 13.4797291,13.7654747 12.2033262,13.9383574 L12.0420732,13.9548894 C8.42167052,14.2081486 5.69191959,17.3465696 5.94482021,20.964589 C6.19772083,24.5826084 9.33752416,27.3104345 12.9579268,27.0571752 C16.2691811,26.8255419 18.9031226,24.3761352 19.1355196,21.1849963 L19.0617818,3.47093684 C19.0562061,2.11187527 20.152988,1.00559916 21.5115342,1 C22.8850025,1 23.9902031,2.10559894 23.9902031,3.46945011 L23.9902031,19.7958814 C23.9902031,19.8426086 23.9888812,19.8912064 23.9862728,19.9414873 L23.9885036,19.9997519 C24.2645221,26.2062318 19.5379392,31.5352125 13.3014379,31.9714766 Z" id="Combined-Shape"></path>
                <path d="M35.030817,19.739984 C34.5502988,26.6898493 39.7398718,32.7220309 46.6280164,33.2091737 C48.5394659,33.344355 50.1932912,31.8916022 50.3261284,29.9703419 C50.4544564,28.1142994 49.116826,26.4925241 47.3020192,26.2644382 L47.1126189,26.2458621 C44.0448546,26.028904 41.7274297,23.3353635 41.9424385,20.2256321 C42.1573633,17.117117 44.8208526,14.777769 47.8873811,14.9946397 C50.7243097,15.1952727 52.930572,17.2930117 53.1363164,19.9816091 L53.0617943,34.2122934 L53.0642742,34.3354167 L53.0636522,34.374982 C53.0636385,37.4227155 50.6845024,39.8991135 47.7110554,40.0153095 L47.4924513,40.0195735 C45.576898,40.0195735 44.0282562,41.5844989 44.0282562,43.5097868 C44.0282562,45.4350746 45.576898,47 47.4924513,47 C54.3980911,47 59.9920283,41.3476723 59.9920283,34.3802808 L59.9907365,34.19499 L59.9910945,21.0694663 C60.2536025,14.3096814 55.1153109,8.50822919 48.3719836,8.0313282 C41.4826032,7.54409805 35.5114194,12.7889023 35.030817,19.739984 Z M48.3014379,9.02883674 C54.517174,9.46842548 59.2330299,14.8216018 58.9910945,21.0694465 L58.9920283,34.3802808 C58.9920283,40.7977525 53.8434153,46 47.4924513,46 C46.131591,46 45.0282562,44.8851715 45.0282562,43.5097868 C45.0282562,42.1894174 46.0450895,41.1091767 47.3304383,41.02487 L47.4924513,41.0195735 C51.0444767,41.0195735 53.938138,38.1721305 54.0596645,34.613361 L54.064,34.312 L54.0617818,34.2172975 L54.1334012,19.9053074 C53.8875833,16.6930432 51.2594172,14.2306189 47.9579268,13.9971312 C44.3375242,13.7410894 41.1977208,16.4988858 40.9448202,20.1566561 C40.6919196,23.8144263 43.4216705,26.9873289 47.0420732,27.2433707 C48.3996185,27.3393789 49.4233734,28.5293316 49.32851,29.901366 C49.2336467,31.2734004 48.0561074,32.3076733 46.6985621,32.2116651 C40.3630687,31.7636069 35.585808,26.210799 36.0284354,19.8089599 C36.4710627,13.4071209 41.9659446,8.58077854 48.3014379,9.02883674 Z" id="Combined-Shape"></path>
                <path d="M73.4695974,0 C71.5513266,0.00795386726 70.0090692,1.57465911 70.0168944,3.49565827 L70.0312015,6.54722477 L70.0266949,6.67243024 L70.025,10.492 L70.0084689,10.6665302 C69.997158,10.8453993 69.9972283,11.027186 70.0082956,11.2101132 L70.026,11.408 L70.0266949,20.2608965 L70.0291358,20.3649635 L70.0288238,20.4348332 C70.0164812,27.3849242 75.6123433,33.012348 82.5290219,33.0000405 C84.4443967,32.9965546 85.9965834,31.4355194 85.9999904,29.5147913 C86.0032965,27.6554085 84.5541053,26.1358425 82.7248121,26.0397025 L82.534263,26.034879 C79.5272216,26.0402562 77.0791049,23.6505962 76.9693589,20.650165 L76.9608587,20.2030035 L76.9509857,18.2506509 L76.951,14.686 L79.5319766,14.6872145 C81.4597626,14.6872145 83.0212116,13.1318728 83.0212116,11.2046442 C83.0132622,9.2860416 81.4471242,7.7432145 79.5264614,7.75104412 L76.949,7.761 L76.9512599,3.49032545 C76.9512599,1.56201902 75.396488,0 73.4695974,0 Z M73.4695974,1 C74.8447245,1 75.9512599,2.11483768 75.9512599,3.49008562 L75.9499947,8.76570301 L79.5305379,8.75103581 C80.9004551,8.74545132 82.0155677,9.84395965 82.0212116,11.2046442 C82.0212116,12.5802744 80.9067816,13.6872145 79.5320365,13.6872145 L75.951,13.687 L75.951,18.256 L75.9616241,20.2421205 L75.9655293,20.4277813 C75.9590377,24.0832026 78.9006832,27.0413781 82.5360511,27.0348774 C83.899208,27.0324398 85.002431,28.1418621 85,29.5130155 C84.997561,30.8841688 83.8903906,31.9975437 82.5272337,32.0000558 C76.263424,32.0111822 71.1761506,26.9924019 71.0319469,20.7310076 L71.02943,20.3342645 L71.0266949,20.2608202 L71.0260156,11.3663469 C70.9923272,11.0847594 70.9904534,10.8008164 71.025695,10.5293987 L71.0266949,6.67243024 C71.0266949,6.63084853 71.0282079,6.58748695 71.0311905,6.54253632 L71.0168861,3.49158477 C71.0113037,2.12116645 72.1094103,1.00564595 73.4695974,1 Z" id="Combined-Shape"></path>
                <path d="M133.511534,8 C131.59651,8.00788416 130.053949,9.56378884 130.06179,11.4750394 L130.135528,29.189159 C129.944249,31.7750414 127.736125,33.8603872 124.888144,34.059613 C121.818619,34.2743366 119.156769,31.9618355 118.942386,28.8948589 C118.733105,25.9008653 120.933519,23.2941066 123.89391,22.9719214 L124.111856,22.9524516 C126.020267,22.8189518 127.459452,21.1641454 127.326076,19.2560497 C127.192697,17.3479129 125.537232,15.9095231 123.628779,16.0430257 C116.742437,16.5247484 111.549728,22.4949808 112.030869,29.3782367 C112.512014,36.2615337 118.484837,41.4507644 125.371221,40.9690388 L125.677663,40.9438831 C132.190783,40.3298878 137.129617,34.7867617 136.997439,28.261881 L136.986,27.94 L136.990203,27.7958814 L136.990203,11.4694501 C136.990203,9.55120261 135.435173,8 133.511534,8 Z M125.301438,39.9714766 C118.965945,40.4146656 113.471063,35.6407736 113.028435,29.3085065 C112.585808,22.9762395 117.363069,17.4837769 123.698562,17.0405879 C125.056107,16.9456231 126.233647,17.9686561 126.32851,19.3257799 C126.419579,20.6286187 125.479729,21.7654747 124.203326,21.9383574 L124.042073,21.9548894 C120.421671,22.2081486 117.69192,25.3465696 117.94482,28.964589 C118.197721,32.5826084 121.337524,35.3104345 124.957927,35.0571752 C128.269181,34.8255419 130.903123,32.3761352 131.13552,29.1849963 L131.061782,11.4709368 C131.056206,10.1118753 132.152988,9.00559916 133.511534,9 C134.885003,9 135.990203,10.1055989 135.990203,11.4694501 L135.990203,27.7958814 C135.990203,27.8426086 135.988881,27.8912064 135.986273,27.9414873 L135.988504,27.9997519 C136.264522,34.2062318 131.537939,39.5352125 125.301438,39.9714766 Z" id="Combined-Shape" transform="translate(124.499995, 24.500021) scale(-1, -1) translate(-124.499995, -24.500021) "></path>
                <path d="M106.510122,8 C104.594308,8.00791919 103.05276,9.5690717 103.060588,11.4847747 L103.13359,21.1816105 C102.939072,23.6893576 100.853637,25.7249867 98.1322839,26.020783 L97.8593571,26.0441929 L97.332,26.063 L97.2682748,26.0559567 L97.1094539,26.0423331 C94.2706713,25.844319 92.0666489,23.7631127 91.8635469,21.0980896 L91.9393924,11.4882175 L91.9344576,11.2901231 C91.822913,9.43830185 90.3211868,8.0075695 88.4940157,8 C86.5654553,8 85.0114206,9.55646109 85.0114206,11.479196 L85.0123234,19.9286626 C84.7066079,26.6955833 89.8548659,32.4983558 96.6244852,32.9705583 C96.9338324,32.9921362 97.2288117,33.0017873 97.5077635,32.9994934 C97.7737475,33.0016012 98.0682419,32.9919937 98.3755148,32.9705604 C105.042564,32.5055126 110.137012,26.8702033 109.997222,20.2188742 L109.984559,19.8643259 L109.987999,19.8763772 L109.988579,11.479196 C109.988579,9.55646109 108.434545,8 106.510122,8 Z M86.0114206,19.8423156 L86.0114206,11.479196 C86.0114206,10.1099623 87.1165267,9 88.4898776,9 C89.7939705,9.00539641 90.8568422,10.02918 90.9348527,11.3182302 L90.9394208,11.4806886 L90.8664383,21.1740795 C91.1035112,24.2848542 93.6074555,26.6868357 96.7934729,27.0185028 L97.0398698,27.0399092 C97.1252379,27.0458639 97.2099104,27.0545261 97.2937895,27.0657589 L97.8612891,27.04518 C97.8988208,27.0435792 97.9321968,27.0418598 97.9601302,27.0399114 C101.262647,26.8095504 103.89041,24.3646198 104.133562,21.1740816 L104.060579,11.4806886 C104.055004,10.1162634 105.151692,9.00562126 106.510122,9 C107.883473,9 108.988579,10.1099623 108.988579,11.479196 L108.988579,19.8423156 L108.986,19.918 L108.988058,19.9562928 C109.269469,26.1883597 104.544211,31.5378445 98.3059307,31.9729844 C98.0206416,31.9928842 97.7520407,32.0014113 97.4995403,31.9995272 C97.2495848,32.0015827 96.9807377,31.9929782 96.6940693,31.9729822 C90.5548094,31.5447493 85.8809202,26.3569443 86.0023115,20.2523725 L86.013,19.918 L86.0114206,19.8423156 Z" id="Combined-Shape"></path>
                <path d="M65.4418037,8.02220888 C67.2973898,8.02220888 68.8086169,9.47050392 68.9073036,11.2975681 L68.91243,11.487882 L68.91243,30.4866178 C68.91243,32.3748928 67.3840419,33.9064918 65.4976291,33.9064918 C63.6748976,33.9064918 62.1845382,32.4797767 62.0801969,30.6797482 L62.0743903,30.4922499 L62.0002625,12.3780692 L62.0029862,12.2748111 L61.9999787,11.493462 C61.9924514,9.64830598 63.429945,8.13412287 65.2482589,8.02811622 L65.4418037,8.02220888 Z M65.4418037,9.02220888 C64.1418311,9.02757586 63.0823177,10.0457752 63.0045536,11.3277942 L63,11.4893665 L63.0029789,12.271 L63,12.4009811 L63.0743819,30.4881375 C63.0796596,31.7718772 64.0782519,32.819592 65.338755,32.9013552 L65.4976291,32.9064918 L65.6564029,32.9013445 C66.8612812,32.8229759 67.8252904,31.8590758 67.9068397,30.6525828 L67.91243,30.4866178 L67.91243,11.487882 C67.91243,10.1261168 66.8108155,9.02220888 65.4418037,9.02220888 Z M65.5471698,0 C67.4062049,0 68.9123989,1.50935833 68.9123989,3.37019808 C68.9123989,5.23103783 67.4062049,6.74039616 65.5471698,6.74039616 C63.6881348,6.74039616 62.1819407,5.23103783 62.1819407,3.37019808 C62.1819407,1.50935833 63.6881348,0 65.5471698,0 Z M65.5471698,1 C64.2408898,1 63.1819407,2.06117383 63.1819407,3.37019808 C63.1819407,4.62467966 64.1544825,5.65153471 65.3852317,5.73492805 L65.5471698,5.74039616 L65.7091079,5.73492805 C66.9398571,5.65153471 67.9123989,4.62467966 67.9123989,3.37019808 C67.9123989,2.06117383 66.8534498,1 65.5471698,1 Z" id="Combined-Shape"></path>
                <path d="M30.4418037,8.20453181 C32.2973898,8.20453181 33.8086169,9.65282685 33.9073036,11.479891 L33.91243,11.6702049 L33.91243,30.4866178 C33.91243,32.3748928 32.3840419,33.9064918 30.4976291,33.9064918 C28.6748976,33.9064918 27.1845382,32.4797767 27.0801969,30.6797482 L27.0743903,30.4922499 L27.0004101,12.3723444 L27.0029903,12.3017638 L26.9999787,11.6757849 C26.9924514,9.83062891 28.429945,8.3164458 30.2482589,8.21043915 L30.4418037,8.20453181 Z M30.4418037,9.20453181 C29.1418311,9.20989879 28.0823177,10.2280982 28.0045536,11.5101171 L28,11.6716894 L28.0029789,12.297 L28,12.4009811 L28.0743819,30.4881375 C28.0796596,31.7718772 29.0782519,32.819592 30.338755,32.9013552 L30.4976291,32.9064918 L30.6564029,32.9013445 C31.8612812,32.8229759 32.8252904,31.8590758 32.9068397,30.6525828 L32.91243,30.4866178 L32.91243,11.6702049 C32.91243,10.3084398 31.8108155,9.20453181 30.4418037,9.20453181 Z M30.5471698,0 C32.4062049,0 33.9123989,1.50935833 33.9123989,3.37019808 C33.9123989,5.23103783 32.4062049,6.74039616 30.5471698,6.74039616 C28.6881348,6.74039616 27.1819407,5.23103783 27.1819407,3.37019808 C27.1819407,1.50935833 28.6881348,0 30.5471698,0 Z M30.5471698,1 C29.2408898,1 28.1819407,2.06117383 28.1819407,3.37019808 C28.1819407,4.62467966 29.1544825,5.65153471 30.3852317,5.73492805 L30.5471698,5.74039616 L30.7091079,5.73492805 C31.9398571,5.65153471 32.9123989,4.62467966 32.9123989,3.37019808 C32.9123989,2.06117383 31.8534498,1 30.5471698,1 Z" id="Combined-Shape"></path>
            </g>
        </g>
    </g>
</svg>