<?xml version="1.0" encoding="UTF-8"?>
<svg width="81px" height="71px" viewBox="0 0 81 71" version="1.1" xmlns="http://www.w3.org/2000/svg" xmlns:xlink="http://www.w3.org/1999/xlink">
    <!-- Generator: sketchtool 60.1 (101010) - https://sketch.com -->
    <title>E104408F-79FA-4D03-8EC6-BDDB1658269A</title>
    <desc>Created with sketchtool.</desc>
    <g id="digitup-2020" stroke="none" stroke-width="1" fill="none" fill-rule="evenodd">
        <g id="Desktop_00" transform="translate(-381.000000, -1953.000000)">
            <g id="Group-77" transform="translate(124.000000, 1817.000000)">
                <g id="Group-38">
                    <g id="Group-59" transform="translate(166.000000, 39.000000)">
                        <g id="Group-58">
                            <g id="Group-34" transform="translate(50.000000, 50.000000)">
                                <g id="Group-35">
                                    <g id="Group" transform="translate(41.000000, 47.000000)">
                                        <line x1="52.3446505" y1="68.4558824" x2="26.7647059" y2="68.4558824" id="Line-2" stroke="#FFFFFF" stroke-width="5" stroke-linecap="round"></line>
                                        <path d="M70.2918532,0 L9.88941581,0 C4.44503435,0 0,4.43103527 0,9.89440327 L0,48.2231394 C0,53.6700584 4.42880172,58.1173345 9.88941581,58.1173345 L37.8428319,58.1173345 L42.338229,58.1173345 L70.2918532,58.1173345 C75.7360265,58.1173345 80.1810609,53.6862992 80.1810609,48.2231394 L80.1810609,9.89440327 C80.1810609,4.43103527 75.7522591,0 70.2918532,0 Z M9.88941581,4.49787246 L70.3080858,4.49787246 C73.2711645,4.49787246 75.7027288,6.91254828 75.7027288,9.89440327 L75.7027288,41.9260763 L4.49560523,41.9260763 L4.49560523,9.89440327 C4.49560523,6.91254828 6.90906388,4.49787246 9.88941581,4.49787246 Z M70.2918532,53.6196702 L9.88941581,53.6196702 C6.92612895,53.6196702 4.49560523,51.2047862 4.49560523,48.2231394 L4.49560523,46.4239488 L75.6856637,46.4239488 L75.6856637,48.2231394 C75.6856637,51.1877125 73.2711645,53.6196702 70.2918532,53.6196702 Z" id="Fill-1" fill="#FFFFFF"></path>
                                    </g>
                                </g>
                            </g>
                        </g>
                    </g>
                </g>
            </g>
        </g>
    </g>
</svg>